<svg width="37" height="32" viewBox="0 0 37 32" fill="none" xmlns="http://www.w3.org/2000/svg">
<path d="M18.5149 31.8398L18.1819 31.7045C15.6009 30.6014 11.2923 27.781 7.47286 23.972C4.45477 20.9643 0.843466 16.4372 0.749801 11.9309C0.583286 3.71957 6.05748 0.48293 10.7928 0.201936C13.3217 0.0562347 15.9131 1.0137 18.5045 3.06392C21.1063 1.0241 23.6977 0.0562347 26.2266 0.201936C30.9619 0.472523 36.4361 3.71957 36.2696 11.9309C36.1759 16.4372 32.5646 20.9643 29.5465 23.9616C25.7271 27.7706 21.4185 30.591 18.8375 31.6941L18.5149 31.8398ZM11.3027 1.44039C11.157 1.44039 11.0113 1.44039 10.8656 1.4508C6.48417 1.71098 1.85297 4.59378 1.99867 11.91C2.06111 15.0946 4.31947 19.0702 8.34706 23.0874C11.9688 26.6987 16.0172 29.3837 18.5045 30.4869C20.9918 29.3837 25.0402 26.6987 28.6619 23.0874C32.6895 19.0702 34.9479 15.1051 35.0103 11.91C35.156 4.59378 30.5248 1.71098 26.1434 1.4508C22.6258 1.24266 19.8262 3.57387 18.9 4.344L18.5045 4.67703L18.109 4.344C17.2244 3.6155 14.6122 1.44039 11.3027 1.44039Z" fill="white"/>
</svg>
