<svg viewBox="0 0 384 156" fill="none" xmlns="http://www.w3.org/2000/svg" class="footerSvg">
  <path d="M383.112 77.8444C383.112 88.427 377.802 98.5333 368.149 107.751C358.495 116.97 344.512 125.283 327.212 132.27C292.615 146.244 244.802 154.892 191.976 154.892C139.15 154.892 91.3367 146.244 56.7391 132.27C39.4397 125.283 25.4567 116.97 15.8025 107.751C6.14905 98.5333 0.839844 88.427 0.839844 77.8444C0.839844 67.2618 6.14905 57.1555 15.8025 47.9375C25.4567 38.7189 39.4397 30.4056 56.7391 23.4186C91.3367 9.44524 139.15 0.796875 191.976 0.796875C244.802 0.796875 292.615 9.44524 327.212 23.4186C344.512 30.4056 358.495 38.7189 368.149 47.9375C377.802 57.1555 383.112 67.2618 383.112 77.8444Z" stroke="#0D0D0D" stroke-width="0.5"></path>
</svg>