<svg width="52" height="67" viewBox="0 0 52 67" fill="none" xmlns="http://www.w3.org/2000/svg">
<g clip-path="url(#clip0)">
<path d="M5.24386 66.3626H8.31601V67.0001H4.5282V60.4126H5.24386V66.3626Z" fill="black"/>
<path d="M12.0184 67.0001H11.3027V60.4126H12.0184V67.0001Z" fill="black"/>
<path d="M17.1801 60.4131C18.1438 60.4131 19.2507 60.79 19.2507 62.1226C19.2507 63.0693 18.5445 63.436 18.2871 63.5427C19.5467 63.7842 19.8231 64.6728 19.8231 65.233C19.8231 65.9862 19.2507 67.0006 17.9052 67.0006H15.5481V60.4131H17.1801ZM16.2644 61.0499V63.3484H16.9706C18.0586 63.3484 18.4878 62.8942 18.4878 62.18C18.4878 61.3687 18.0201 61.0499 16.9706 61.0499H16.2644ZM16.2644 63.9866V66.3624H17.4187C18.8216 66.3624 19.0602 65.7344 19.0602 65.1742C19.0602 64.6235 18.6973 63.986 17.3998 63.986H16.2644V63.9866Z" fill="black"/>
<path d="M35.306 66.9998H34.562L33.6172 64.8847H30.6403L29.7145 66.9998H28.9705L31.8615 60.374H32.3386L35.306 66.9998ZM32.1001 61.5137L30.9167 64.2472H33.3212L32.1001 61.5137Z" fill="black"/>
<path d="M46.7554 63.4845V67.0006H46.0398V63.4845L43.5779 60.4131H44.4463L46.3925 62.847L48.3679 60.4131H49.2363L46.7554 63.4845Z" fill="black"/>
<path d="M-0.0335693 25.076H3.79951V1.16586H-0.0335693V0.676758H19.7191V6.72389H19.3393C18.1655 3.08877 16.7841 1.16586 12.9855 1.16586H7.2528V11.9672H9.4971C12.5706 11.9672 13.5376 11.0232 14.5392 6.82855H14.919V17.7004H14.5392C13.9174 15.0086 13.3646 12.457 10.0499 12.457H7.2528V25.076H13.7796C18.8216 25.076 20.3753 20.0419 20.6517 17.9104H21.0315V25.5658H-0.0335693V25.076Z" fill="black"/>
<path d="M26.0903 25.1318H29.1415L38.5039 0H39.3358L48.7678 25.1318H51.8534V25.6237H41.1739V25.1318H45.0232L41.3821 15.3737H33.3375L29.6963 25.1318H33.545V25.6237H26.0903V25.1318ZM37.3598 4.66806L33.5456 14.8825H41.1746L37.3598 4.66806Z" fill="black"/>
<path d="M4.95895 54.5139H8.80757V30.5053H6.79642C4.95895 30.5053 1.97669 30.6811 0.381145 36.4375H0V30.0142H21.0826V36.4375H20.7015C19.1066 30.6811 16.1243 30.5053 14.2862 30.5053H12.275V54.5139H16.1243V55.0058H4.95895V54.5139Z" fill="black"/>
<path d="M25.8835 54.5151H29.7234V30.5625H25.8835V30.0728H37.0233V30.5625H33.1834V42.0138H44.7036V30.5625H40.8638V30.0728H52.0035V30.5625H48.1636V54.5151H52.0035V55.0055H40.8631V54.5151H44.7029V42.5036H33.1827V54.5151H37.0226V55.0055H25.8835V54.5151Z" fill="black"/>
<path d="M25.8698 64.8611C25.6441 64.532 25.3285 64.0272 24.9278 63.8603C25.763 63.7413 26.4868 63.0702 26.4868 62.1795C26.4868 61.3881 26.0306 60.4126 24.3452 60.4126H22.6835V67.0001H23.3998V63.9889H23.8357C24.181 63.9889 24.4554 64.0641 24.8257 64.582C25.2704 65.2024 26.5206 67.0001 26.5206 67.0001H27.3444C27.3451 67.0001 26.1611 65.2852 25.8698 64.8611ZM24.2385 63.3486H23.4005V61.0536H24.2385C25.2298 61.0536 25.7279 61.5057 25.7279 62.1891C25.7279 62.943 25.165 63.3486 24.2385 63.3486Z" fill="black"/>
<path d="M40.9251 64.8611C40.6994 64.532 40.3838 64.0272 39.9831 63.8603C40.8184 63.7413 41.5421 63.0702 41.5421 62.1795C41.5421 61.3881 41.086 60.4126 39.4005 60.4126H37.7388V67.0001H38.4551V63.9889H38.891C39.2363 63.9889 39.5107 64.0641 39.881 64.582C40.3257 65.2024 41.5759 67.0001 41.5759 67.0001H42.3997C42.4004 67.0001 41.2164 65.2852 40.9251 64.8611ZM39.2938 63.3486H38.4558V61.0536H39.2938C40.2852 61.0536 40.7832 61.5057 40.7832 62.1891C40.7832 62.943 40.2203 63.3486 39.2938 63.3486Z" fill="black"/>
</g>
<defs>
<clipPath id="clip0">
<rect width="52" height="67" fill="white"/>
</clipPath>
</defs>
</svg>
